<?xml version="1.0" encoding="UTF-8" standalone="no"?>
<!DOCTYPE svg PUBLIC "-//W3C//DTD SVG 1.1//EN" "http://www.w3.org/Graphics/SVG/1.1/DTD/svg11.dtd">
<svg xmlns="http://www.w3.org/2000/svg" version="1.1" viewBox="0.00 0.00 758.00 608.00">
<g stroke-width="2.00" fill="none" stroke-linecap="butt">
<path stroke="#f7d5ad" vector-effect="non-scaling-stroke" d="
  M 454.73 370.17
  Q 438.59 369.04 421.87 370.47"
/>
<path stroke="#8f8f8e" vector-effect="non-scaling-stroke" d="
  M 421.87 370.47
  Q 421.83 370.36 421.55 370.17
  A 0.87 0.87 0.0 0 1 421.65 368.67
  C 425.75 366.57 434.88 363.44 432.37 357.41
  Q 432.16 356.93 431.67 356.77
  C 427.78 355.54 419.73 362.07 416.57 364.37
  C 414.35 365.99 412.82 365.72 410.71 364.28
  Q 398.00 355.55 381.25 345.83
  C 379.83 345.01 378.03 344.41 376.80 345.51
  C 374.08 347.94 375.78 350.07 378.24 351.61
  Q 392.07 360.23 406.12 369.15
  A 0.74 0.74 0.0 0 1 406.44 369.99
  Q 406.34 370.33 405.51 370.46"
/>
<path stroke="#f7d5ad" vector-effect="non-scaling-stroke" d="
  M 405.51 370.46
  Q 400.15 369.61 394.75 369.66
  Q 362.38 369.99 329.39 369.93"
/>
<path stroke="#8f8f8e" vector-effect="non-scaling-stroke" d="
  M 329.39 369.93
  Q 343.99 360.54 357.59 351.80
  C 360.76 349.76 362.44 348.34 359.55 345.07
  Q 358.61 344.00 357.38 344.66
  Q 343.88 352.00 323.63 365.52
  Q 323.19 365.81 322.68 365.68
  Q 321.26 365.32 320.21 364.57
  Q 313.81 359.98 308.23 356.84
  Q 305.99 355.57 303.62 357.18
  Q 303.22 357.44 303.10 357.90
  Q 302.20 361.14 305.04 362.95
  Q 311.38 366.99 315.59 369.29
  Q 316.11 369.57 315.73 370.03
  Q 315.29 370.55 314.29 370.70"
/>
<path stroke="#f7d5ad" vector-effect="non-scaling-stroke" d="
  M 314.29 370.70
  Q 304.63 369.41 295.88 369.94
  A 0.76 0.76 0.0 0 0 295.28 371.10
  L 300.52 379.77"
/>
<path stroke="#8f8f8e" vector-effect="non-scaling-stroke" d="
  M 300.52 379.77
  L 297.39 382.15
  Q 296.86 382.56 296.93 383.23
  L 297.21 385.71
  Q 297.27 386.25 297.73 386.53
  Q 300.32 388.11 302.69 386.56"
/>
<path stroke="#f7d5ad" vector-effect="non-scaling-stroke" d="
  M 302.69 386.56
  L 316.53 418.61"
/>
<path stroke="#8f8f8e" vector-effect="non-scaling-stroke" d="
  M 316.53 418.61
  Q 313.11 417.12 310.78 418.34
  C 308.68 419.45 309.11 422.13 310.81 423.21
  Q 319.35 428.61 322.42 431.35"
/>
<path stroke="#f7d5ad" vector-effect="non-scaling-stroke" d="
  M 322.42 431.35
  Q 329.89 451.40 339.04 469.48"
/>
<path stroke="#8f8f8e" vector-effect="non-scaling-stroke" d="
  M 339.04 469.48
  C 336.33 470.50 334.24 474.33 337.12 476.16
  C 338.67 477.13 340.31 476.24 341.86 475.53"
/>
<path stroke="#f7d5ad" vector-effect="non-scaling-stroke" d="
  M 341.86 475.53
  Q 342.12 479.37 343.70 482.07
  Q 345.79 485.65 347.56 489.41
  Q 347.71 489.72 347.21 490.09"
/>
<path stroke="#8f8f8e" vector-effect="non-scaling-stroke" d="
  M 347.21 490.09
  C 342.90 490.06 342.35 495.14 346.00 496.96
  Q 348.33 498.12 353.28 501.79"
/>
<path stroke="#f7d5ad" vector-effect="non-scaling-stroke" d="
  M 353.28 501.79
  Q 353.63 505.49 356.07 509.28"
/>
<path stroke="#8f8f8e" vector-effect="non-scaling-stroke" d="
  M 356.07 509.28
  C 353.43 511.25 350.09 512.28 350.56 516.07
  A 1.11 1.10 -75.9 0 0 351.01 516.83
  Q 354.13 519.07 358.40 515.79"
/>
<path stroke="#f7d5ad" vector-effect="non-scaling-stroke" d="
  M 358.40 515.79
  L 372.89 547.85"
/>
<path stroke="#8f8f8e" vector-effect="non-scaling-stroke" d="
  M 372.89 547.85
  L 367.30 560.09
  Q 367.08 560.58 366.83 560.11
  Q 358.73 544.35 351.68 528.10
  C 347.85 519.27 343.46 510.69 339.48 501.90
  Q 334.05 489.92 331.12 483.73
  C 324.93 470.67 318.77 456.55 313.08 444.36
  Q 300.31 416.95 287.81 389.41
  C 281.95 376.51 274.52 361.25 268.36 346.84
  Q 267.85 345.65 269.11 345.94
  C 280.89 348.63 293.47 350.44 305.40 350.00
  C 326.31 349.23 346.16 342.47 364.15 332.66
  C 375.76 326.33 367.42 310.19 354.57 317.30
  C 342.01 324.24 328.53 329.49 314.20 331.16
  C 301.80 332.59 293.79 332.27 280.82 330.21
  Q 276.85 329.58 272.83 328.16
  C 266.25 325.85 259.18 323.54 253.55 320.76
  C 238.39 313.25 226.72 303.01 216.25 289.75
  C 208.14 279.48 202.99 267.76 199.09 255.42
  Q 196.07 245.86 195.33 235.84
  C 194.51 224.76 194.57 212.80 197.65 201.99
  C 200.42 192.25 203.57 182.50 208.47 174.02
  Q 232.29 132.75 280.69 121.62
  A 0.93 0.92 -10.0 0 1 281.81 122.40
  Q 283.51 135.49 289.48 148.34"
/>
<path stroke="#ffd5ec" vector-effect="non-scaling-stroke" d="
  M 289.48 148.34
  Q 287.78 148.44 286.11 148.21
  Q 284.05 147.92 282.79 148.05
  Q 242.78 152.07 219.84 182.93
  C 202.12 206.76 198.84 237.87 209.04 265.31
  C 216.64 285.77 232.33 302.04 251.77 311.91
  Q 268.24 320.27 289.51 320.18
  Q 318.70 320.06 340.54 304.30
  Q 357.90 291.78 368.25 270.88
  Q 368.43 270.50 368.65 270.41
  Q 368.97 270.28 369.32 270.51"
/>
<path stroke="#8f8f8e" vector-effect="non-scaling-stroke" d="
  M 369.32 270.51
  C 385.48 331.05 454.55 357.66 506.88 324.51
  C 528.09 311.07 542.95 289.00 547.69 264.36
  Q 548.81 258.56 549.02 249.58
  Q 549.27 239.18 548.53 234.73
  C 542.45 198.17 517.88 170.11 482.47 159.38
  C 479.62 158.51 476.44 158.19 473.39 157.64
  Q 468.47 156.76 466.52 157.18
  C 458.88 158.85 456.58 168.53 463.23 172.87
  Q 465.11 174.09 470.69 175.07
  Q 484.34 177.47 496.72 185.30
  C 528.60 205.47 540.77 245.71 523.83 279.67
  C 514.35 298.66 496.68 313.86 475.78 318.88"
/>
<path stroke="#fee6ab" vector-effect="non-scaling-stroke" d="
  M 475.78 318.88
  Q 475.34 318.70 475.37 318.17
  A 0.69 0.69 0.0 0 1 475.92 317.53
  C 485.41 315.44 496.09 306.89 502.57 300.17
  C 506.27 296.33 509.60 291.05 512.92 286.41
  Q 516.75 281.05 519.13 270.75
  Q 526.45 239.11 509.40 214.14
  C 493.90 191.45 467.10 180.85 440.11 185.69
  C 418.78 189.53 400.94 203.23 391.19 222.78
  C 388.52 228.13 387.20 234.60 385.89 240.59
  A 0.58 0.58 0.0 0 1 384.81 240.74
  Q 384.76 240.65 384.69 240.50"
/>
<path stroke="#8f8f8e" vector-effect="non-scaling-stroke" d="
  M 384.69 240.50
  C 386.20 222.38 393.48 208.09 405.92 195.36
  C 411.66 189.49 420.41 184.70 425.83 180.32
  Q 460.32 152.50 461.13 108.58
  C 461.28 100.84 459.62 91.96 457.82 84.66
  Q 453.95 69.05 443.86 55.40
  C 427.51 33.27 403.91 20.27 376.56 18.82
  C 357.25 17.79 338.23 21.81 321.95 32.48
  Q 284.65 56.92 280.15 103.34
  Q 280.10 103.86 279.59 103.95
  C 241.75 110.66 209.61 133.82 191.66 167.61
  Q 187.74 174.97 184.21 184.76
  Q 180.42 195.28 178.95 202.75
  Q 175.49 220.45 177.80 240.31
  Q 178.96 250.30 181.79 259.88
  Q 195.71 307.01 238.30 332.81
  C 243.22 335.79 245.34 339.15 247.57 344.16
  Q 263.04 378.95 283.28 422.22
  C 286.40 428.87 289.77 436.95 293.20 444.22
  C 308.53 476.70 323.32 509.45 338.35 542.08
  C 342.12 550.26 349.49 565.36 354.51 577.26
  Q 357.24 583.73 358.69 586.26
  C 361.94 591.94 369.06 594.05 373.45 588.17
  Q 375.67 585.18 378.95 577.98
  Q 402.24 526.68 426.04 475.61
  Q 428.99 469.29 434.35 457.40
  C 440.11 444.64 446.12 432.30 451.90 419.23
  Q 456.75 408.27 461.91 397.45
  Q 465.82 389.24 475.55 367.26
  C 477.69 362.43 476.92 356.80 471.85 354.44
  C 461.59 349.64 457.51 363.81 454.73 370.17"
/>
<path stroke="#8d763a" vector-effect="non-scaling-stroke" d="
  M 384.69 240.50
  C 381.82 270.24 396.84 298.01 422.68 312.22
  C 438.80 321.08 457.83 322.78 475.78 318.88"
/>
<path stroke="#8f647b" vector-effect="non-scaling-stroke" d="
  M 369.32 270.51
  Q 362.44 240.13 373.41 211.82"
/>
<path stroke="#8f8f8e" vector-effect="non-scaling-stroke" d="
  M 373.41 211.82
  Q 385.20 185.42 408.91 170.09
  Q 416.06 165.47 418.57 163.25
  Q 439.46 144.77 442.18 116.01
  C 447.33 61.47 395.59 22.85 344.52 41.22"
/>
<path stroke="#6e7c62" vector-effect="non-scaling-stroke" d="
  M 344.52 41.22
  Q 340.83 42.30 336.02 45.02
  C 320.48 53.80 308.07 67.36 302.52 84.28
  Q 298.67 96.03 298.79 109.50
  C 298.98 130.99 306.39 147.37 321.50 161.68
  Q 325.62 165.57 329.33 169.25"
/>
<path stroke="#8f647b" vector-effect="non-scaling-stroke" d="
  M 329.33 169.25
  Q 330.86 172.92 330.32 174.98
  C 329.39 178.58 326.01 183.12 321.84 182.99
  Q 319.64 182.93 318.73 182.29
  Q 299.61 169.00 289.48 148.34"
/>
<path stroke="#87653c" vector-effect="non-scaling-stroke" d="
  M 372.89 547.85
  Q 382.69 527.66 391.43 507.86
  C 394.87 500.08 399.16 491.66 402.80 483.43
  C 410.16 466.77 417.52 451.69 424.58 435.69
  C 425.79 432.96 427.74 430.06 428.87 427.38
  C 437.03 408.11 446.25 389.29 454.73 370.17"
/>
<path stroke="#87653c" vector-effect="non-scaling-stroke" d="
  M 358.40 515.79
  Q 360.82 514.20 364.41 512.31
  C 365.70 511.64 367.46 510.36 368.87 511.32
  Q 373.64 514.59 378.74 517.19
  C 383.65 519.70 386.45 514.16 383.00 512.24
  Q 378.55 509.77 374.58 506.42
  Q 374.11 506.03 374.58 505.65
  C 376.86 503.80 380.35 502.25 382.07 501.15
  Q 386.81 498.12 391.53 495.09
  Q 394.91 492.92 393.06 489.50
  Q 392.83 489.08 392.39 488.91
  Q 389.81 487.94 387.81 489.32
  Q 378.19 496.02 368.35 501.52
  A 1.99 1.99 0.0 0 1 366.46 501.54
  Q 357.57 496.88 349.71 490.98
  C 348.93 490.40 348.11 490.22 347.21 490.09"
/>
<path stroke="#87653c" vector-effect="non-scaling-stroke" d="
  M 341.86 475.53
  L 367.85 459.46
  Q 368.28 459.20 368.71 459.47
  Q 384.54 469.64 394.32 475.38
  Q 397.48 477.24 400.15 474.96
  Q 400.53 474.64 400.59 474.15
  Q 400.92 471.65 398.84 470.40
  Q 385.11 462.17 375.27 455.48
  Q 374.84 455.19 375.27 454.91
  Q 395.97 441.53 417.03 428.73
  C 419.24 427.39 424.94 424.31 423.95 421.29
  C 422.92 418.16 420.12 418.83 417.86 420.24
  Q 393.91 435.23 369.26 450.67
  Q 368.40 451.21 367.52 450.71
  C 358.86 445.82 350.10 439.79 342.08 434.97
  Q 328.78 426.98 316.53 418.61"
/>
<path stroke="#ffd5ec" vector-effect="non-scaling-stroke" d="
  M 373.41 211.82
  Q 373.01 212.00 372.94 211.70
  Q 370.89 202.12 366.35 193.42
  Q 362.32 185.70 353.39 175.79"
/>
<path stroke="#dfedd3" vector-effect="non-scaling-stroke" d="
  M 353.39 175.79
  C 363.55 176.46 374.08 176.52 383.65 173.67
  Q 408.88 166.18 423.12 143.04
  Q 430.40 131.21 432.22 116.00
  Q 434.56 96.42 426.58 79.93
  Q 421.10 68.62 416.76 63.77
  Q 391.56 35.59 353.83 40.42
  Q 353.57 40.45 349.32 41.53
  Q 346.60 42.22 344.52 41.22"
/>
<path stroke="#dfc2c0" vector-effect="non-scaling-stroke" d="
  M 353.39 175.79
  Q 343.86 173.92 340.74 172.74
  Q 332.94 169.76 329.33 169.25"
/>
<path stroke="#87653c" vector-effect="non-scaling-stroke" d="
  M 339.04 469.48
  Q 350.27 463.12 360.86 455.36
  Q 361.38 454.98 360.84 454.63
  C 355.74 451.25 350.16 448.18 345.35 444.90
  Q 334.99 437.85 322.42 431.35"
/>
<path stroke="#87653c" vector-effect="non-scaling-stroke" d="
  M 356.07 509.28
  L 359.74 506.45
  Q 360.34 505.98 359.69 505.59
  L 353.28 501.79"
/>
<path stroke="#87653c" vector-effect="non-scaling-stroke" d="
  M 329.39 369.93
  L 367.86 394.11
  Q 368.28 394.37 368.70 394.11
  Q 385.41 383.63 402.28 372.97
  Q 404.51 371.55 405.51 370.46"
/>
<path stroke="#87653c" vector-effect="non-scaling-stroke" d="
  M 421.87 370.47
  Q 424.05 372.56 428.95 375.03
  Q 431.54 376.33 437.41 380.93
  C 440.49 383.35 439.49 388.88 435.04 386.94
  Q 429.81 384.66 416.05 374.96
  C 412.22 372.27 408.20 377.48 405.10 379.35
  Q 390.91 387.93 375.92 397.82
  Q 374.66 398.65 375.97 399.40
  Q 387.29 405.92 398.71 413.79
  Q 400.58 415.08 399.95 417.44
  A 1.30 1.27 83.0 0 1 399.37 418.20
  Q 396.27 419.99 392.99 417.95
  Q 381.33 410.72 369.96 403.31
  Q 368.64 402.45 367.23 403.17
  C 358.59 407.56 350.03 415.33 341.59 418.67
  Q 339.90 419.33 337.63 417.79
  Q 337.22 417.51 337.12 417.02
  C 336.78 415.25 337.57 413.85 339.11 412.79
  Q 349.83 405.43 360.89 399.18
  A 0.69 0.69 0.0 0 0 360.90 397.99
  C 356.35 395.26 352.01 391.93 347.67 389.43
  Q 336.02 382.70 324.95 375.06
  C 322.66 373.48 321.77 374.35 319.79 375.58
  Q 311.13 380.98 302.69 386.56"
/>
<path stroke="#87653c" vector-effect="non-scaling-stroke" d="
  M 300.52 379.77
  L 314.29 370.70"
/>
<path stroke="#dfedd3" vector-effect="non-scaling-stroke" d="
  M 399.7372 66.3545
  A 4.39 4.39 0.0 0 0 397.5022 60.5623
  L 389.6213 57.0700
  A 4.39 4.39 0.0 0 0 383.8292 59.3050
  L 383.6428 59.7255
  A 4.39 4.39 0.0 0 0 385.8778 65.5177
  L 393.7587 69.0100
  A 4.39 4.39 0.0 0 0 399.5508 66.7750
  L 399.7372 66.3545"
/>
<path stroke="#dfedd3" vector-effect="non-scaling-stroke" d="
  M 422.13 128.64
  C 428.02 112.68 426.16 93.78 417.06 79.41
  C 415.06 76.26 410.99 70.10 407.07 69.84
  Q 403.87 69.63 402.90 73.36
  A 2.60 2.56 -55.5 0 0 403.28 75.49
  Q 406.86 80.51 410.19 85.82
  C 418.42 98.88 417.18 111.60 414.54 126.27
  Q 414.09 128.75 415.58 131.16
  Q 415.85 131.59 416.33 131.76
  C 419.05 132.69 421.15 131.29 422.13 128.64"
/>
</g>
<path fill="#ffffff" d="
  M 0.00 0.00
  L 758.00 0.00
  L 758.00 608.00
  L 0.00 608.00
  L 0.00 0.00
  Z
  M 454.73 370.17
  Q 438.59 369.04 421.87 370.47
  Q 421.83 370.36 421.55 370.17
  A 0.87 0.87 0.0 0 1 421.65 368.67
  C 425.75 366.57 434.88 363.44 432.37 357.41
  Q 432.16 356.93 431.67 356.77
  C 427.78 355.54 419.73 362.07 416.57 364.37
  C 414.35 365.99 412.82 365.72 410.71 364.28
  Q 398.00 355.55 381.25 345.83
  C 379.83 345.01 378.03 344.41 376.80 345.51
  C 374.08 347.94 375.78 350.07 378.24 351.61
  Q 392.07 360.23 406.12 369.15
  A 0.74 0.74 0.0 0 1 406.44 369.99
  Q 406.34 370.33 405.51 370.46
  Q 400.15 369.61 394.75 369.66
  Q 362.38 369.99 329.39 369.93
  Q 343.99 360.54 357.59 351.80
  C 360.76 349.76 362.44 348.34 359.55 345.07
  Q 358.61 344.00 357.38 344.66
  Q 343.88 352.00 323.63 365.52
  Q 323.19 365.81 322.68 365.68
  Q 321.26 365.32 320.21 364.57
  Q 313.81 359.98 308.23 356.84
  Q 305.99 355.57 303.62 357.18
  Q 303.22 357.44 303.10 357.90
  Q 302.20 361.14 305.04 362.95
  Q 311.38 366.99 315.59 369.29
  Q 316.11 369.57 315.73 370.03
  Q 315.29 370.55 314.29 370.70
  Q 304.63 369.41 295.88 369.94
  A 0.76 0.76 0.0 0 0 295.28 371.10
  L 300.52 379.77
  L 297.39 382.15
  Q 296.86 382.56 296.93 383.23
  L 297.21 385.71
  Q 297.27 386.25 297.73 386.53
  Q 300.32 388.11 302.69 386.56
  L 316.53 418.61
  Q 313.11 417.12 310.78 418.34
  C 308.68 419.45 309.11 422.13 310.81 423.21
  Q 319.35 428.61 322.42 431.35
  Q 329.89 451.40 339.04 469.48
  C 336.33 470.50 334.24 474.33 337.12 476.16
  C 338.67 477.13 340.31 476.24 341.86 475.53
  Q 342.12 479.37 343.70 482.07
  Q 345.79 485.65 347.56 489.41
  Q 347.71 489.72 347.21 490.09
  C 342.90 490.06 342.35 495.14 346.00 496.96
  Q 348.33 498.12 353.28 501.79
  Q 353.63 505.49 356.07 509.28
  C 353.43 511.25 350.09 512.28 350.56 516.07
  A 1.11 1.10 -75.9 0 0 351.01 516.83
  Q 354.13 519.07 358.40 515.79
  L 372.89 547.85
  L 367.30 560.09
  Q 367.08 560.58 366.83 560.11
  Q 358.73 544.35 351.68 528.10
  C 347.85 519.27 343.46 510.69 339.48 501.90
  Q 334.05 489.92 331.12 483.73
  C 324.93 470.67 318.77 456.55 313.08 444.36
  Q 300.31 416.95 287.81 389.41
  C 281.95 376.51 274.52 361.25 268.36 346.84
  Q 267.85 345.65 269.11 345.94
  C 280.89 348.63 293.47 350.44 305.40 350.00
  C 326.31 349.23 346.16 342.47 364.15 332.66
  C 375.76 326.33 367.42 310.19 354.57 317.30
  C 342.01 324.24 328.53 329.49 314.20 331.16
  C 301.80 332.59 293.79 332.27 280.82 330.21
  Q 276.85 329.58 272.83 328.16
  C 266.25 325.85 259.18 323.54 253.55 320.76
  C 238.39 313.25 226.72 303.01 216.25 289.75
  C 208.14 279.48 202.99 267.76 199.09 255.42
  Q 196.07 245.86 195.33 235.84
  C 194.51 224.76 194.57 212.80 197.65 201.99
  C 200.42 192.25 203.57 182.50 208.47 174.02
  Q 232.29 132.75 280.69 121.62
  A 0.93 0.92 -10.0 0 1 281.81 122.40
  Q 283.51 135.49 289.48 148.34
  Q 287.78 148.44 286.11 148.21
  Q 284.05 147.92 282.79 148.05
  Q 242.78 152.07 219.84 182.93
  C 202.12 206.76 198.84 237.87 209.04 265.31
  C 216.64 285.77 232.33 302.04 251.77 311.91
  Q 268.24 320.27 289.51 320.18
  Q 318.70 320.06 340.54 304.30
  Q 357.90 291.78 368.25 270.88
  Q 368.43 270.50 368.65 270.41
  Q 368.97 270.28 369.32 270.51
  C 385.48 331.05 454.55 357.66 506.88 324.51
  C 528.09 311.07 542.95 289.00 547.69 264.36
  Q 548.81 258.56 549.02 249.58
  Q 549.27 239.18 548.53 234.73
  C 542.45 198.17 517.88 170.11 482.47 159.38
  C 479.62 158.51 476.44 158.19 473.39 157.64
  Q 468.47 156.76 466.52 157.18
  C 458.88 158.85 456.58 168.53 463.23 172.87
  Q 465.11 174.09 470.69 175.07
  Q 484.34 177.47 496.72 185.30
  C 528.60 205.47 540.77 245.71 523.83 279.67
  C 514.35 298.66 496.68 313.86 475.78 318.88
  Q 475.34 318.70 475.37 318.17
  A 0.69 0.69 0.0 0 1 475.92 317.53
  C 485.41 315.44 496.09 306.89 502.57 300.17
  C 506.27 296.33 509.60 291.05 512.92 286.41
  Q 516.75 281.05 519.13 270.75
  Q 526.45 239.11 509.40 214.14
  C 493.90 191.45 467.10 180.85 440.11 185.69
  C 418.78 189.53 400.94 203.23 391.19 222.78
  C 388.52 228.13 387.20 234.60 385.89 240.59
  A 0.58 0.58 0.0 0 1 384.81 240.74
  Q 384.76 240.65 384.69 240.50
  C 386.20 222.38 393.48 208.09 405.92 195.36
  C 411.66 189.49 420.41 184.70 425.83 180.32
  Q 460.32 152.50 461.13 108.58
  C 461.28 100.84 459.62 91.96 457.82 84.66
  Q 453.95 69.05 443.86 55.40
  C 427.51 33.27 403.91 20.27 376.56 18.82
  C 357.25 17.79 338.23 21.81 321.95 32.48
  Q 284.65 56.92 280.15 103.34
  Q 280.10 103.86 279.59 103.95
  C 241.75 110.66 209.61 133.82 191.66 167.61
  Q 187.74 174.97 184.21 184.76
  Q 180.42 195.28 178.95 202.75
  Q 175.49 220.45 177.80 240.31
  Q 178.96 250.30 181.79 259.88
  Q 195.71 307.01 238.30 332.81
  C 243.22 335.79 245.34 339.15 247.57 344.16
  Q 263.04 378.95 283.28 422.22
  C 286.40 428.87 289.77 436.95 293.20 444.22
  C 308.53 476.70 323.32 509.45 338.35 542.08
  C 342.12 550.26 349.49 565.36 354.51 577.26
  Q 357.24 583.73 358.69 586.26
  C 361.94 591.94 369.06 594.05 373.45 588.17
  Q 375.67 585.18 378.95 577.98
  Q 402.24 526.68 426.04 475.61
  Q 428.99 469.29 434.35 457.40
  C 440.11 444.64 446.12 432.30 451.90 419.23
  Q 456.75 408.27 461.91 397.45
  Q 465.82 389.24 475.55 367.26
  C 477.69 362.43 476.92 356.80 471.85 354.44
  C 461.59 349.64 457.51 363.81 454.73 370.17
  Z"
/>
<path fill="#1e1e1c" d="
  M 384.69 240.50
  C 381.82 270.24 396.84 298.01 422.68 312.22
  C 438.80 321.08 457.83 322.78 475.78 318.88
  C 496.68 313.86 514.35 298.66 523.83 279.67
  C 540.77 245.71 528.60 205.47 496.72 185.30
  Q 484.34 177.47 470.69 175.07
  Q 465.11 174.09 463.23 172.87
  C 456.58 168.53 458.88 158.85 466.52 157.18
  Q 468.47 156.76 473.39 157.64
  C 476.44 158.19 479.62 158.51 482.47 159.38
  C 517.88 170.11 542.45 198.17 548.53 234.73
  Q 549.27 239.18 549.02 249.58
  Q 548.81 258.56 547.69 264.36
  C 542.95 289.00 528.09 311.07 506.88 324.51
  C 454.55 357.66 385.48 331.05 369.32 270.51
  Q 362.44 240.13 373.41 211.82
  Q 385.20 185.42 408.91 170.09
  Q 416.06 165.47 418.57 163.25
  Q 439.46 144.77 442.18 116.01
  C 447.33 61.47 395.59 22.85 344.52 41.22
  Q 340.83 42.30 336.02 45.02
  C 320.48 53.80 308.07 67.36 302.52 84.28
  Q 298.67 96.03 298.79 109.50
  C 298.98 130.99 306.39 147.37 321.50 161.68
  Q 325.62 165.57 329.33 169.25
  Q 330.86 172.92 330.32 174.98
  C 329.39 178.58 326.01 183.12 321.84 182.99
  Q 319.64 182.93 318.73 182.29
  Q 299.61 169.00 289.48 148.34
  Q 283.51 135.49 281.81 122.40
  A 0.93 0.92 -10.0 0 0 280.69 121.62
  Q 232.29 132.75 208.47 174.02
  C 203.57 182.50 200.42 192.25 197.65 201.99
  C 194.57 212.80 194.51 224.76 195.33 235.84
  Q 196.07 245.86 199.09 255.42
  C 202.99 267.76 208.14 279.48 216.25 289.75
  C 226.72 303.01 238.39 313.25 253.55 320.76
  C 259.18 323.54 266.25 325.85 272.83 328.16
  Q 276.85 329.58 280.82 330.21
  C 293.79 332.27 301.80 332.59 314.20 331.16
  C 328.53 329.49 342.01 324.24 354.57 317.30
  C 367.42 310.19 375.76 326.33 364.15 332.66
  C 346.16 342.47 326.31 349.23 305.40 350.00
  C 293.47 350.44 280.89 348.63 269.11 345.94
  Q 267.85 345.65 268.36 346.84
  C 274.52 361.25 281.95 376.51 287.81 389.41
  Q 300.31 416.95 313.08 444.36
  C 318.77 456.55 324.93 470.67 331.12 483.73
  Q 334.05 489.92 339.48 501.90
  C 343.46 510.69 347.85 519.27 351.68 528.10
  Q 358.73 544.35 366.83 560.11
  Q 367.08 560.58 367.30 560.09
  L 372.89 547.85
  Q 382.69 527.66 391.43 507.86
  C 394.87 500.08 399.16 491.66 402.80 483.43
  C 410.16 466.77 417.52 451.69 424.58 435.69
  C 425.79 432.96 427.74 430.06 428.87 427.38
  C 437.03 408.11 446.25 389.29 454.73 370.17
  C 457.51 363.81 461.59 349.64 471.85 354.44
  C 476.92 356.80 477.69 362.43 475.55 367.26
  Q 465.82 389.24 461.91 397.45
  Q 456.75 408.27 451.90 419.23
  C 446.12 432.30 440.11 444.64 434.35 457.40
  Q 428.99 469.29 426.04 475.61
  Q 402.24 526.68 378.95 577.98
  Q 375.67 585.18 373.45 588.17
  C 369.06 594.05 361.94 591.94 358.69 586.26
  Q 357.24 583.73 354.51 577.26
  C 349.49 565.36 342.12 550.26 338.35 542.08
  C 323.32 509.45 308.53 476.70 293.20 444.22
  C 289.77 436.95 286.40 428.87 283.28 422.22
  Q 263.04 378.95 247.57 344.16
  C 245.34 339.15 243.22 335.79 238.30 332.81
  Q 195.71 307.01 181.79 259.88
  Q 178.96 250.30 177.80 240.31
  Q 175.49 220.45 178.95 202.75
  Q 180.42 195.28 184.21 184.76
  Q 187.74 174.97 191.66 167.61
  C 209.61 133.82 241.75 110.66 279.59 103.95
  Q 280.10 103.86 280.15 103.34
  Q 284.65 56.92 321.95 32.48
  C 338.23 21.81 357.25 17.79 376.56 18.82
  C 403.91 20.27 427.51 33.27 443.86 55.40
  Q 453.95 69.05 457.82 84.66
  C 459.62 91.96 461.28 100.84 461.13 108.58
  Q 460.32 152.50 425.83 180.32
  C 420.41 184.70 411.66 189.49 405.92 195.36
  C 393.48 208.09 386.20 222.38 384.69 240.50
  Z"
/>
<path fill="#ffffff" d="
  M 373.41 211.82
  Q 373.01 212.00 372.94 211.70
  Q 370.89 202.12 366.35 193.42
  Q 362.32 185.70 353.39 175.79
  C 363.55 176.46 374.08 176.52 383.65 173.67
  Q 408.88 166.18 423.12 143.04
  Q 430.40 131.21 432.22 116.00
  Q 434.56 96.42 426.58 79.93
  Q 421.10 68.62 416.76 63.77
  Q 391.56 35.59 353.83 40.42
  Q 353.57 40.45 349.32 41.53
  Q 346.60 42.22 344.52 41.22
  C 395.59 22.85 447.33 61.47 442.18 116.01
  Q 439.46 144.77 418.57 163.25
  Q 416.06 165.47 408.91 170.09
  Q 385.20 185.42 373.41 211.82
  Z"
/>
<path fill="#bedaa7" d="
  M 353.39 175.79
  Q 343.86 173.92 340.74 172.74
  Q 332.94 169.76 329.33 169.25
  Q 325.62 165.57 321.50 161.68
  C 306.39 147.37 298.98 130.99 298.79 109.50
  Q 298.67 96.03 302.52 84.28
  C 308.07 67.36 320.48 53.80 336.02 45.02
  Q 340.83 42.30 344.52 41.22
  Q 346.60 42.22 349.32 41.53
  Q 353.57 40.45 353.83 40.42
  Q 391.56 35.59 416.76 63.77
  Q 421.10 68.62 426.58 79.93
  Q 434.56 96.42 432.22 116.00
  Q 430.40 131.21 423.12 143.04
  Q 408.88 166.18 383.65 173.67
  C 374.08 176.52 363.55 176.46 353.39 175.79
  Z
  M 399.7372 66.3545
  A 4.39 4.39 0.0 0 0 397.5022 60.5623
  L 389.6213 57.0700
  A 4.39 4.39 0.0 0 0 383.8292 59.3050
  L 383.6428 59.7255
  A 4.39 4.39 0.0 0 0 385.8778 65.5177
  L 393.7587 69.0100
  A 4.39 4.39 0.0 0 0 399.5508 66.7750
  L 399.7372 66.3545
  Z
  M 422.13 128.64
  C 428.02 112.68 426.16 93.78 417.06 79.41
  C 415.06 76.26 410.99 70.10 407.07 69.84
  Q 403.87 69.63 402.90 73.36
  A 2.60 2.56 -55.5 0 0 403.28 75.49
  Q 406.86 80.51 410.19 85.82
  C 418.42 98.88 417.18 111.60 414.54 126.27
  Q 414.09 128.75 415.58 131.16
  Q 415.85 131.59 416.33 131.76
  C 419.05 132.69 421.15 131.29 422.13 128.64
  Z"
/>
<rect fill="#ffffff" x="-8.70" y="-4.62" transform="translate(391.69,63.04) rotate(23.9)" width="17.40" height="9.24" rx="4.39"/>
<path fill="#ffffff" d="
  M 417.06 79.41
  C 426.16 93.78 428.02 112.68 422.13 128.64
  C 421.15 131.29 419.05 132.69 416.33 131.76
  Q 415.85 131.59 415.58 131.16
  Q 414.09 128.75 414.54 126.27
  C 417.18 111.60 418.42 98.88 410.19 85.82
  Q 406.86 80.51 403.28 75.49
  A 2.60 2.56 -55.5 0 1 402.90 73.36
  Q 403.87 69.63 407.07 69.84
  C 410.99 70.10 415.06 76.26 417.06 79.41
  Z"
/>
<path fill="#ffaad9" d="
  M 289.48 148.34
  Q 299.61 169.00 318.73 182.29
  Q 319.64 182.93 321.84 182.99
  C 326.01 183.12 329.39 178.58 330.32 174.98
  Q 330.86 172.92 329.33 169.25
  Q 332.94 169.76 340.74 172.74
  Q 343.86 173.92 353.39 175.79
  Q 362.32 185.70 366.35 193.42
  Q 370.89 202.12 372.94 211.70
  Q 373.01 212.00 373.41 211.82
  Q 362.44 240.13 369.32 270.51
  Q 368.97 270.28 368.65 270.41
  Q 368.43 270.50 368.25 270.88
  Q 357.90 291.78 340.54 304.30
  Q 318.70 320.06 289.51 320.18
  Q 268.24 320.27 251.77 311.91
  C 232.33 302.04 216.64 285.77 209.04 265.31
  C 198.84 237.87 202.12 206.76 219.84 182.93
  Q 242.78 152.07 282.79 148.05
  Q 284.05 147.92 286.11 148.21
  Q 287.78 148.44 289.48 148.34
  Z"
/>
<path fill="#fccd57" d="
  M 475.78 318.88
  C 457.83 322.78 438.80 321.08 422.68 312.22
  C 396.84 298.01 381.82 270.24 384.69 240.50
  Q 384.76 240.65 384.81 240.74
  A 0.58 0.58 0.0 0 0 385.89 240.59
  C 387.20 234.60 388.52 228.13 391.19 222.78
  C 400.94 203.23 418.78 189.53 440.11 185.69
  C 467.10 180.85 493.90 191.45 509.40 214.14
  Q 526.45 239.11 519.13 270.75
  Q 516.75 281.05 512.92 286.41
  C 509.60 291.05 506.27 296.33 502.57 300.17
  C 496.09 306.89 485.41 315.44 475.92 317.53
  A 0.69 0.69 0.0 0 0 475.37 318.17
  Q 475.34 318.70 475.78 318.88
  Z"
/>
<path fill="#1e1e1c" d="
  M 329.39 369.93
  L 367.86 394.11
  Q 368.28 394.37 368.70 394.11
  Q 385.41 383.63 402.28 372.97
  Q 404.51 371.55 405.51 370.46
  Q 406.34 370.33 406.44 369.99
  A 0.74 0.74 0.0 0 0 406.12 369.15
  Q 392.07 360.23 378.24 351.61
  C 375.78 350.07 374.08 347.94 376.80 345.51
  C 378.03 344.41 379.83 345.01 381.25 345.83
  Q 398.00 355.55 410.71 364.28
  C 412.82 365.72 414.35 365.99 416.57 364.37
  C 419.73 362.07 427.78 355.54 431.67 356.77
  Q 432.16 356.93 432.37 357.41
  C 434.88 363.44 425.75 366.57 421.65 368.67
  A 0.87 0.87 0.0 0 0 421.55 370.17
  Q 421.83 370.36 421.87 370.47
  Q 424.05 372.56 428.95 375.03
  Q 431.54 376.33 437.41 380.93
  C 440.49 383.35 439.49 388.88 435.04 386.94
  Q 429.81 384.66 416.05 374.96
  C 412.22 372.27 408.20 377.48 405.10 379.35
  Q 390.91 387.93 375.92 397.82
  Q 374.66 398.65 375.97 399.40
  Q 387.29 405.92 398.71 413.79
  Q 400.58 415.08 399.95 417.44
  A 1.30 1.27 83.0 0 1 399.37 418.20
  Q 396.27 419.99 392.99 417.95
  Q 381.33 410.72 369.96 403.31
  Q 368.64 402.45 367.23 403.17
  C 358.59 407.56 350.03 415.33 341.59 418.67
  Q 339.90 419.33 337.63 417.79
  Q 337.22 417.51 337.12 417.02
  C 336.78 415.25 337.57 413.85 339.11 412.79
  Q 349.83 405.43 360.89 399.18
  A 0.69 0.69 0.0 0 0 360.90 397.99
  C 356.35 395.26 352.01 391.93 347.67 389.43
  Q 336.02 382.70 324.95 375.06
  C 322.66 373.48 321.77 374.35 319.79 375.58
  Q 311.13 380.98 302.69 386.56
  Q 300.32 388.11 297.73 386.53
  Q 297.27 386.25 297.21 385.71
  L 296.93 383.23
  Q 296.86 382.56 297.39 382.15
  L 300.52 379.77
  L 314.29 370.70
  Q 315.29 370.55 315.73 370.03
  Q 316.11 369.57 315.59 369.29
  Q 311.38 366.99 305.04 362.95
  Q 302.20 361.14 303.10 357.90
  Q 303.22 357.44 303.62 357.18
  Q 305.99 355.57 308.23 356.84
  Q 313.81 359.98 320.21 364.57
  Q 321.26 365.32 322.68 365.68
  Q 323.19 365.81 323.63 365.52
  Q 343.88 352.00 357.38 344.66
  Q 358.61 344.00 359.55 345.07
  C 362.44 348.34 360.76 349.76 357.59 351.80
  Q 343.99 360.54 329.39 369.93
  Z"
/>
<path fill="#efab5b" d="
  M 405.51 370.46
  Q 404.51 371.55 402.28 372.97
  Q 385.41 383.63 368.70 394.11
  Q 368.28 394.37 367.86 394.11
  L 329.39 369.93
  Q 362.38 369.99 394.75 369.66
  Q 400.15 369.61 405.51 370.46
  Z"
/>
<path fill="#efab5b" d="
  M 314.29 370.70
  L 300.52 379.77
  L 295.28 371.10
  A 0.76 0.76 0.0 0 1 295.88 369.94
  Q 304.63 369.41 314.29 370.70
  Z"
/>
<path fill="#efab5b" d="
  M 454.73 370.17
  C 446.25 389.29 437.03 408.11 428.87 427.38
  C 427.74 430.06 425.79 432.96 424.58 435.69
  C 417.52 451.69 410.16 466.77 402.80 483.43
  C 399.16 491.66 394.87 500.08 391.43 507.86
  Q 382.69 527.66 372.89 547.85
  L 358.40 515.79
  Q 360.82 514.20 364.41 512.31
  C 365.70 511.64 367.46 510.36 368.87 511.32
  Q 373.64 514.59 378.74 517.19
  C 383.65 519.70 386.45 514.16 383.00 512.24
  Q 378.55 509.77 374.58 506.42
  Q 374.11 506.03 374.58 505.65
  C 376.86 503.80 380.35 502.25 382.07 501.15
  Q 386.81 498.12 391.53 495.09
  Q 394.91 492.92 393.06 489.50
  Q 392.83 489.08 392.39 488.91
  Q 389.81 487.94 387.81 489.32
  Q 378.19 496.02 368.35 501.52
  A 1.99 1.99 0.0 0 1 366.46 501.54
  Q 357.57 496.88 349.71 490.98
  C 348.93 490.40 348.11 490.22 347.21 490.09
  Q 347.71 489.72 347.56 489.41
  Q 345.79 485.65 343.70 482.07
  Q 342.12 479.37 341.86 475.53
  L 367.85 459.46
  Q 368.28 459.20 368.71 459.47
  Q 384.54 469.64 394.32 475.38
  Q 397.48 477.24 400.15 474.96
  Q 400.53 474.64 400.59 474.15
  Q 400.92 471.65 398.84 470.40
  Q 385.11 462.17 375.27 455.48
  Q 374.84 455.19 375.27 454.91
  Q 395.97 441.53 417.03 428.73
  C 419.24 427.39 424.94 424.31 423.95 421.29
  C 422.92 418.16 420.12 418.83 417.86 420.24
  Q 393.91 435.23 369.26 450.67
  Q 368.40 451.21 367.52 450.71
  C 358.86 445.82 350.10 439.79 342.08 434.97
  Q 328.78 426.98 316.53 418.61
  L 302.69 386.56
  Q 311.13 380.98 319.79 375.58
  C 321.77 374.35 322.66 373.48 324.95 375.06
  Q 336.02 382.70 347.67 389.43
  C 352.01 391.93 356.35 395.26 360.90 397.99
  A 0.69 0.69 0.0 0 1 360.89 399.18
  Q 349.83 405.43 339.11 412.79
  C 337.57 413.85 336.78 415.25 337.12 417.02
  Q 337.22 417.51 337.63 417.79
  Q 339.90 419.33 341.59 418.67
  C 350.03 415.33 358.59 407.56 367.23 403.17
  Q 368.64 402.45 369.96 403.31
  Q 381.33 410.72 392.99 417.95
  Q 396.27 419.99 399.37 418.20
  A 1.30 1.27 83.0 0 0 399.95 417.44
  Q 400.58 415.08 398.71 413.79
  Q 387.29 405.92 375.97 399.40
  Q 374.66 398.65 375.92 397.82
  Q 390.91 387.93 405.10 379.35
  C 408.20 377.48 412.22 372.27 416.05 374.96
  Q 429.81 384.66 435.04 386.94
  C 439.49 388.88 440.49 383.35 437.41 380.93
  Q 431.54 376.33 428.95 375.03
  Q 424.05 372.56 421.87 370.47
  Q 438.59 369.04 454.73 370.17
  Z"
/>
<path fill="#1e1e1c" d="
  M 316.53 418.61
  Q 328.78 426.98 342.08 434.97
  C 350.10 439.79 358.86 445.82 367.52 450.71
  Q 368.40 451.21 369.26 450.67
  Q 393.91 435.23 417.86 420.24
  C 420.12 418.83 422.92 418.16 423.95 421.29
  C 424.94 424.31 419.24 427.39 417.03 428.73
  Q 395.97 441.53 375.27 454.91
  Q 374.84 455.19 375.27 455.48
  Q 385.11 462.17 398.84 470.40
  Q 400.92 471.65 400.59 474.15
  Q 400.53 474.64 400.15 474.96
  Q 397.48 477.24 394.32 475.38
  Q 384.54 469.64 368.71 459.47
  Q 368.28 459.20 367.85 459.46
  L 341.86 475.53
  C 340.31 476.24 338.67 477.13 337.12 476.16
  C 334.24 474.33 336.33 470.50 339.04 469.48
  Q 350.27 463.12 360.86 455.36
  Q 361.38 454.98 360.84 454.63
  C 355.74 451.25 350.16 448.18 345.35 444.90
  Q 334.99 437.85 322.42 431.35
  Q 319.35 428.61 310.81 423.21
  C 309.11 422.13 308.68 419.45 310.78 418.34
  Q 313.11 417.12 316.53 418.61
  Z"
/>
<path fill="#efab5b" d="
  M 322.42 431.35
  Q 334.99 437.85 345.35 444.90
  C 350.16 448.18 355.74 451.25 360.84 454.63
  Q 361.38 454.98 360.86 455.36
  Q 350.27 463.12 339.04 469.48
  Q 329.89 451.40 322.42 431.35
  Z"
/>
<path fill="#1e1e1c" d="
  M 358.40 515.79
  Q 354.13 519.07 351.01 516.83
  A 1.11 1.10 -75.9 0 1 350.56 516.07
  C 350.09 512.28 353.43 511.25 356.07 509.28
  L 359.74 506.45
  Q 360.34 505.98 359.69 505.59
  L 353.28 501.79
  Q 348.33 498.12 346.00 496.96
  C 342.35 495.14 342.90 490.06 347.21 490.09
  C 348.11 490.22 348.93 490.40 349.71 490.98
  Q 357.57 496.88 366.46 501.54
  A 1.99 1.99 0.0 0 0 368.35 501.52
  Q 378.19 496.02 387.81 489.32
  Q 389.81 487.94 392.39 488.91
  Q 392.83 489.08 393.06 489.50
  Q 394.91 492.92 391.53 495.09
  Q 386.81 498.12 382.07 501.15
  C 380.35 502.25 376.86 503.80 374.58 505.65
  Q 374.11 506.03 374.58 506.42
  Q 378.55 509.77 383.00 512.24
  C 386.45 514.16 383.65 519.70 378.74 517.19
  Q 373.64 514.59 368.87 511.32
  C 367.46 510.36 365.70 511.64 364.41 512.31
  Q 360.82 514.20 358.40 515.79
  Z"
/>
<path fill="#efab5b" d="
  M 353.28 501.79
  L 359.69 505.59
  Q 360.34 505.98 359.74 506.45
  L 356.07 509.28
  Q 353.63 505.49 353.28 501.79
  Z"
/>
</svg>
